{"title":"The Night Manager S01E06 x264 RB58.mp4","uid":14064961,"size":678357348,"categoryP":"video","categoryS":"tv_shows","magnet":"?xt=urn:btih:13e5651924a8234906db55785670222adce38d6b&amp;dn=The+Night+Manager+S01E06+x264+RB58.mp4&amp;tr=udp%3A%2F%2Ftracker.leechers-paradise.org%3A6969&amp;tr=udp%3A%2F%2Fzer0day.ch%3A1337&amp;tr=udp%3A%2F%2Fopen.demonii.com%3A1337&amp;tr=udp%3A%2F%2Ftracker.coppersurfer.tk%3A6969&amp;tr=udp%3A%2F%2Fexodus.desync.com%3A6969","seeders":1,"leechers":0,"uploader":"RedBaron58","files":1,"time":1459133087,"description":"The Night Manager S01E06 x264 mp4\r\n \nhttp://www.imdb.com/title/tt1399664/\r\n\r\nTrailer:\r\n\r\n\r\nPlease be patient My intial upload speed is limited.\r\nThank you for your kind comments and feedback on my other torrents, your feedback is welcome.\r\n\r\n\r\nAbout the Episode:\r\nRoper's final deal with Barghati takes place in Cairo, and Pine is forced to return to \r\nthe Nefertiti Hotel, where he first became aware of the arms dealer. \r\nThis leads him to unexpectedly bump into the owner, jeopardising his cover story. \r\nBurr faces the consequences of her failed mission to intercept one of Roper's arms shipments, \r\nand suspects Pine has turned against her. \r\nJed risks her life to obtain the combination to a safe containing vital documents, \r\nbut has to do so under the watchful gaze of Caroline. \r\nLast in the series.\r\n\r\n\r\nI hope you enjoy.\r\n\r\n\r\nTechnical:\r\n\r\nGeneral\r\nComplete name                            : G:The Night Manager S01E06 x264 RB58.mp4\r\nFormat                                   : MPEG-4\r\nFormat profile                           : Base Media\r\nCodec ID                                 : isom\r\nFile size                                : 647 MiB\r\nDuration                                 : 59mn 24s\r\nOverall bit rate                         : 1 522 Kbps\r\nWriting application                      : Lavf54.63.104\r\n\r\nVideo\r\nID                                       : 1\r\nFormat                                   : AVC\r\nFormat/Info                              : Advanced Video Codec\r\nFormat profile                           :   \r\nFormat settings, CABAC                   : Yes\r\nFormat settings, ReFrames                : 4 frames\r\nCodec ID                                 : avc1\r\nCodec ID/Info                            : Advanced Video Coding\r\nDuration                                 : 59mn 24s\r\nBit rate                                 : 1 400 Kbps\r\nWidth                                    : 832 pixels\r\nHeight                                   : 468 pixels\r\nDisplay aspect ratio                     : 16:9\r\nFrame rate mode                          : Constant\r\nFrame rate                               : 25.000 fps\r\nColor space                              : YUV\r\nChroma subsampling                       : 4:2:0\r\nBit depth                                : 8 bits\r\nScan type                                : Progressive\r\nBits/(Pixel*Frame)                       : 0.144\r\nStream size                              : 595 MiB (92%)\r\nWriting library                          : x264 core 123 r2189 35cf912\r\nEncoding settings                        : cabac=1 / ref=3 / deblock=1:0:0\r\n\r\nAudio\r\nID                                       : 2\r\nFormat                                   : AAC\r\nFormat/Info                              : Advanced Audio Codec\r\nFormat profile                           : LC\r\nCodec ID                                 : 40\r\nDuration                                 : 59mn 24s\r\nBit rate mode                            : Constant\r\nBit rate                                 : 114 Kbps\r\nChannel(s)                               : 2 channels\r\nChannel positions                        : Front: L R\r\nSampling rate                            : 48.0 KHz\r\nCompression mode                         : Lossy\r\nStream size                              : 48.4 MiB (7%)","torrent":{"xt":"urn:btih:13e5651924a8234906db55785670222adce38d6b","amp;dn":"The+Night+Manager+S01E06+x264+RB58.mp4","amp;tr":["udp%3A%2F%2Ftracker.leechers-paradise.org%3A6969","udp%3A%2F%2Fzer0day.ch%3A1337","udp%3A%2F%2Fopen.demonii.com%3A1337","udp%3A%2F%2Ftracker.coppersurfer.tk%3A6969","udp%3A%2F%2Fexodus.desync.com%3A6969"],"infoHash":"13e5651924a8234906db55785670222adce38d6b","infoHashBuffer":{"type":"Buffer","data":[19,229,101,25,36,168,35,73,6,219,85,120,86,112,34,42,220,227,141,107]},"announce":[],"urlList":[]}}